<?xml version="1.0" standalone="no"?>
<!DOCTYPE svg PUBLIC "-//W3C//DTD SVG 20010904//EN"
 "http://www.w3.org/TR/2001/REC-SVG-20010904/DTD/svg10.dtd">
<svg version="1.0" xmlns="http://www.w3.org/2000/svg"
 width="968.000000pt" height="968.000000pt" viewBox="0 0 968.000000 968.000000"
 preserveAspectRatio="xMidYMid meet">

<g transform="translate(0.000000,968.000000) scale(0.100000,-0.100000)"
fill="#000000" stroke="none">
<path d="M0 4840 l0 -4840 4840 0 4840 0 0 4840 0 4840 -4840 0 -4840 0 0
-4840z m5116 3596 c233 -47 431 -154 604 -326 150 -149 258 -322 320 -515 18
-55 36 -104 40 -108 4 -4 227 -9 496 -10 444 -2 492 -4 524 -20 44 -21 87 -86
95 -141 3 -22 5 -347 3 -721 l-3 -680 -22 -41 c-54 -102 -197 -126 -284 -47
-69 63 -69 61 -69 710 l0 573 -331 0 -331 0 8 -87 c16 -156 12 -248 -12 -279
-38 -51 -67 -66 -132 -67 -106 -3 -155 53 -166 185 -6 72 -17 151 -32 224 -3
20 -11 22 -102 26 -121 4 -177 32 -211 101 -66 136 24 267 183 267 37 0 38 1
32 28 -13 57 -99 212 -163 291 -175 219 -413 331 -701 331 -227 0 -493 -91
-709 -242 -136 -95 -281 -246 -348 -360 l-27 -48 64 0 c88 0 136 -16 179 -59
67 -67 65 -177 -5 -247 -53 -54 -92 -64 -243 -64 -68 0 -123 -1 -124 -2 0 -2
-4 -67 -7 -145 -7 -140 -8 -143 -37 -173 -41 -44 -76 -60 -128 -60 -49 0 -96
27 -131 73 -19 25 -21 45 -24 168 l-4 139 -288 0 -289 0 -3 -592 c-3 -651 -1
-631 -64 -690 -86 -80 -232 -58 -287 45 l-22 42 0 710 c0 674 1 713 19 752 11
25 35 54 59 70 l40 28 467 3 466 3 38 84 c64 142 148 258 286 395 136 136 238
214 388 297 175 97 393 169 583 193 95 11 313 4 405 -14z m2231 -3203 c109
-58 127 -227 34 -306 -17 -14 -48 -31 -69 -37 -25 -7 -850 -10 -2541 -10
l-2505 0 -43 21 c-23 11 -54 34 -68 51 -22 26 -25 38 -25 115 0 70 4 90 21
114 20 29 61 55 109 70 14 4 1155 7 2535 6 l2510 -2 42 -22z m-4721 -892 c54
-25 92 -75 104 -141 6 -31 10 -281 10 -616 l0 -564 594 0 c646 0 633 1 688
-57 59 -63 62 -175 6 -239 -65 -74 -11 -69 -813 -69 l-720 0 -38 24 c-21 13
-50 42 -65 64 l-27 41 0 720 c0 804 -4 754 70 813 58 47 123 55 191 24z m4493
-19 c20 -16 45 -44 56 -63 19 -33 20 -52 20 -749 l0 -715 -23 -42 c-12 -24
-41 -55 -64 -70 l-42 -28 -725 0 -726 0 -42 29 c-122 82 -104 275 30 325 19 7
227 11 623 11 l594 0 0 570 c0 372 4 587 11 620 21 97 99 155 198 146 40 -4
63 -12 90 -34z m-6206 -2223 c143 -47 223 -145 261 -321 l6 -28 -115 0 -115 0
-6 28 c-12 48 -43 100 -73 122 -47 33 -129 46 -192 32 -93 -22 -144 -79 -175
-197 -17 -61 -19 -303 -3 -373 15 -74 66 -152 116 -180 76 -42 206 -45 286 -7
l37 17 0 104 0 104 -105 0 -105 0 0 85 0 85 225 0 225 0 0 -229 0 -230 -37
-31 c-98 -81 -257 -125 -426 -118 -161 7 -267 57 -351 165 -84 107 -116 222
-116 421 0 319 124 513 363 568 81 18 216 11 300 -17z m5533 20 c86 -16 174
-61 226 -117 49 -52 88 -140 88 -198 l0 -35 -117 3 -118 3 -6 37 c-12 76 -61
115 -155 125 -113 12 -204 -45 -204 -126 0 -75 41 -104 245 -175 148 -51 221
-93 281 -159 50 -56 74 -122 74 -207 0 -194 -153 -310 -408 -310 -160 0 -290
48 -375 139 -48 51 -87 140 -87 196 l0 35 114 0 c125 0 117 4 131 -65 7 -38
48 -83 89 -100 89 -36 213 -25 266 25 26 24 30 35 30 79 0 90 -30 115 -230
186 -196 70 -287 132 -338 229 -38 72 -38 178 0 252 75 144 284 222 494 183z
m883 -289 c156 -26 263 -131 278 -275 l6 -55 -105 0 -106 0 -10 43 c-7 24 -24
55 -42 72 -28 27 -38 30 -96 30 -63 0 -67 -2 -99 -37 -44 -47 -55 -91 -55
-213 0 -122 12 -169 54 -211 77 -77 223 -43 242 55 l7 31 103 0 104 0 0 -28
c0 -89 -80 -201 -178 -249 -52 -26 -66 -28 -172 -28 -103 0 -121 3 -171 26
-145 68 -219 206 -219 407 1 244 121 405 323 431 34 5 64 9 67 10 3 0 34 -4
69 -9z m898 -16 c70 -19 132 -69 168 -134 l30 -55 6 -290 c3 -187 10 -300 17
-318 7 -16 12 -33 12 -38 0 -5 -50 -9 -114 -9 l-114 0 -12 35 -12 35 -34 -26
c-50 -39 -100 -53 -185 -54 -165 -1 -279 105 -279 258 0 42 7 72 26 110 53
106 152 152 347 160 l117 4 0 42 c0 91 -57 142 -145 130 -54 -7 -83 -28 -93
-67 l-8 -32 -112 -3 -112 -3 0 28 c0 42 43 125 81 157 100 85 264 112 416 70z
m959 -4 c53 -23 80 -52 113 -120 l26 -55 3 -332 3 -333 -115 0 -115 0 -3 310
-3 310 -26 26 c-48 48 -154 45 -208 -5 l-31 -29 0 -306 0 -306 -115 0 -115 0
0 425 0 425 104 0 c113 0 115 -1 116 -69 l0 -25 28 26 c89 83 225 106 338 58z
m-7356 -90 l0 -110 -70 0 c-40 0 -86 -7 -109 -16 -71 -28 -71 -29 -71 -344 l0
-280 -115 0 -115 0 0 425 0 425 110 0 110 0 0 -47 0 -47 38 38 c49 51 83 65
160 66 l62 0 0 -110z m614 82 c159 -72 232 -215 224 -436 -5 -132 -27 -197
-90 -273 -78 -92 -172 -133 -308 -133 -246 0 -395 164 -394 435 0 214 96 367
263 420 71 23 242 15 305 -13z m887 1 c100 -45 171 -141 185 -250 l7 -53 -106
0 -105 0 -10 43 c-16 63 -59 99 -125 105 -100 8 -148 -41 -169 -171 -13 -89 1
-221 30 -271 25 -44 84 -69 145 -63 61 5 98 32 117 85 l14 42 103 0 c117 0
115 3 88 -88 -23 -78 -82 -144 -162 -184 -64 -31 -73 -33 -178 -33 -98 0 -116
3 -166 26 -112 53 -186 152 -210 284 -17 89 -6 248 21 318 40 105 114 182 210
217 76 28 243 24 311 -7z m811 13 c152 -45 234 -176 245 -388 l6 -108 -272 0
c-179 0 -271 -3 -271 -10 0 -21 31 -85 53 -109 74 -80 226 -81 318 -3 22 19
44 31 48 26 4 -5 29 -33 56 -62 l48 -52 -24 -26 c-72 -78 -186 -124 -306 -124
-277 1 -438 181 -420 470 16 247 163 399 388 400 47 0 106 -6 131 -14z m851
-13 c0 -13 -1 -61 -2 -108 l-1 -85 -70 0 c-81 0 -128 -16 -158 -55 -21 -27
-22 -36 -22 -306 l0 -279 -110 0 -110 0 0 425 0 425 105 0 c102 0 105 -1 105
-22 0 -13 3 -33 6 -45 6 -22 7 -21 31 8 42 50 89 69 163 66 60 -2 64 -4 63
-24z m354 -227 c40 -132 75 -246 79 -255 3 -9 38 91 83 239 l77 255 121 3 122
3 -9 -28 c-39 -133 -346 -987 -368 -1027 -56 -98 -157 -146 -276 -132 l-56 7
0 90 0 89 54 0 c40 0 60 6 81 22 30 23 64 90 65 124 0 12 -65 208 -145 435
-80 228 -145 415 -145 417 0 1 55 1 122 0 l123 -3 72 -239z"/>
<path d="M8065 1353 c-89 -20 -125 -56 -125 -125 0 -101 135 -131 230 -51 29
24 30 28 30 104 l0 79 -57 -1 c-32 -1 -67 -3 -78 -6z"/>
<path d="M2189 1627 c-19 -12 -45 -43 -59 -67 -23 -41 -25 -56 -25 -165 0
-110 2 -124 25 -164 33 -59 68 -83 128 -89 101 -9 162 49 184 175 25 146 -18
286 -97 319 -52 21 -116 18 -156 -9z"/>
<path d="M3938 1635 c-31 -17 -67 -73 -78 -121 l-8 -34 160 0 159 0 -7 38
c-10 56 -26 84 -63 109 -40 27 -120 31 -163 8z"/>
</g>
</svg>
